<?xml version="1.0" standalone="no"?>
<!DOCTYPE svg PUBLIC "-//W3C//DTD SVG 20010904//EN"
 "http://www.w3.org/TR/2001/REC-SVG-20010904/DTD/svg10.dtd">
<svg version="1.0" xmlns="http://www.w3.org/2000/svg"
 width="246.000000pt" height="246.000000pt" viewBox="0 0 246.000000 246.000000"
 preserveAspectRatio="xMidYMid meet">
<metadata>
Created by potrace 1.14, written by Peter Selinger 2001-2017
</metadata>
<g transform="translate(0.000000,246.000000) scale(0.100000,-0.100000)"
fill="#000000" stroke="none">
<path d="M255 1813 c-196 -46 -309 -277 -223 -460 29 -61 99 -132 163 -163 50
-24 51 -24 425 -27 415 -2 428 -4 490 -68 84 -87 62 -229 -47 -297 l-38 -23
-395 -2 c-380 -1 -396 -1 -431 19 -32 18 -69 71 -69 98 0 6 159 10 428 10 465
1 459 0 468 57 5 32 -24 72 -54 74 -87 7 -941 3 -955 -3 -15 -8 -18 -21 -16
-92 3 -131 34 -197 122 -257 l50 -34 441 0 441 0 51 26 51 26 10 -28 11 -29
179 0 c126 0 183 4 191 12 8 8 12 64 12 188 l0 175 -48 57 c-46 55 -75 71 -84
46 -2 -7 -4 -86 -3 -175 0 -90 -2 -164 -5 -164 -27 -6 -120 -7 -121 -1 -4 24
-3 902 1 903 29 8 195 2 204 -6 6 -7 34 -38 61 -70 28 -32 57 -65 65 -74 9 -9
40 -45 70 -81 30 -36 60 -69 66 -75 6 -5 95 -108 198 -227 103 -120 191 -218
194 -218 30 1 32 21 34 385 l3 369 58 1 c32 0 61 -3 63 -7 6 -10 6 -887 -1
-897 -2 -5 -49 -8 -103 -7 l-98 1 -89 105 c-49 58 -121 141 -160 185 -38 44
-95 109 -125 144 -30 35 -69 80 -86 100 -17 20 -68 79 -113 131 -45 52 -90 95
-99 95 -27 0 -25 -149 2 -184 19 -25 185 -221 196 -231 3 -3 46 -52 95 -110
50 -58 104 -121 121 -140 17 -19 66 -75 109 -125 43 -49 84 -93 91 -98 7 -4
98 -6 201 -5 l188 3 3 574 c1 415 -1 578 -9 587 -9 11 -52 14 -190 14 l-179 0
-6 -27 c-4 -14 -7 -140 -7 -280 0 -139 -3 -253 -7 -253 -3 0 -54 55 -112 123
-58 67 -167 193 -242 280 l-137 157 -193 0 c-155 0 -195 -3 -199 -14 -5 -11
-14 -11 -59 0 -41 11 -139 14 -443 13 -214 -1 -399 -4 -410 -6z m852 -149 c28
-21 61 -89 50 -101 -4 -3 -194 -6 -422 -6 -396 0 -417 -1 -440 -19 -31 -24
-33 -68 -4 -94 20 -18 43 -19 445 -19 417 0 424 0 425 -20 0 -11 2 -54 2 -96
l2 -76 -65 31 -65 30 -375 1 c-419 1 -421 2 -479 73 -67 80 -60 192 16 264 54
51 72 53 493 53 379 0 390 -1 417 -21z"/>
</g>
</svg>
